HIERARCHY
ROOT Hips
{
 OFFSET 0.000000 0.000000 0.000000
 CHANNELS 6 Xposition Yposition Zposition Yrotation Xrotation Zrotation
 JOINT Chest
 {
  OFFSET 0.000000 9.581000 -0.001100
  CHANNELS 3 Yrotation Xrotation Zrotation
  JOINT Chest2
  {
   OFFSET 0.000000 9.561100 0.002200
   CHANNELS 3 Yrotation Xrotation Zrotation
   JOINT Chest3
   {
    OFFSET 0.000000 9.521100 0.000000
    CHANNELS 3 Yrotation Xrotation Zrotation
    JOINT Chest4
    {
     OFFSET 0.000000 9.511400 0.000000
     CHANNELS 3 Yrotation Xrotation Zrotation
     JOINT Neck
     {
      OFFSET 0.000000 14.375100 0.000000
      CHANNELS 3 Yrotation Xrotation Zrotation
      JOINT Head
      {
       OFFSET 0.000000 8.901200 0.004600
       CHANNELS 3 Yrotation Xrotation Zrotation
       End Site
       {
        OFFSET 0.000000 16.962200 0.002400
       }
      }
     }
     JOINT RightCollar
     {
      OFFSET -2.920100 9.518800 0.000000
      CHANNELS 3 Yrotation Xrotation Zrotation
      JOINT RightShoulder
      {
       OFFSET -13.664500 0.000000 0.000000
       CHANNELS 3 Yrotation Xrotation Zrotation
       JOINT RightElbow
       {
        OFFSET 0.000000 -29.999200 0.000000
        CHANNELS 3 Yrotation Xrotation Zrotation
        JOINT RightWrist
        {
         OFFSET 0.000000 -24.253600 0.000000
         CHANNELS 3 Yrotation Xrotation Zrotation
         End Site
         {
          OFFSET 0.000000 -17.918900 0.000000
         }
        }
       }
      }
     }
     JOINT LeftCollar
     {
      OFFSET 2.920100 9.518800 0.000000
      CHANNELS 3 Yrotation Xrotation Zrotation
      JOINT LeftShoulder
      {
       OFFSET 13.664500 0.000000 0.000000
       CHANNELS 3 Yrotation Xrotation Zrotation
       JOINT LeftElbow
       {
        OFFSET 0.000000 -29.999200 0.000000
        CHANNELS 3 Yrotation Xrotation Zrotation
        JOINT LeftWrist
        {
         OFFSET 0.000000 -24.253600 0.000000
         CHANNELS 3 Yrotation Xrotation Zrotation
         End Site
         {
          OFFSET 0.000000 -17.918900 0.000000
         }
        }
       }
      }
     }
    }
   }
  }
 }
 JOINT RightHip
 {
  OFFSET -7.797300 0.005300 0.000500
  CHANNELS 3 Yrotation Xrotation Zrotation
  JOINT RightKnee
  {
   OFFSET 0.000000 -40.663400 -0.000500
   CHANNELS 3 Yrotation Xrotation Zrotation
   JOINT RightAnkle
   {
    OFFSET 0.000000 -39.523700 -0.000900
    CHANNELS 3 Yrotation Xrotation Zrotation
    JOINT RightToe
    {
     OFFSET 0.000000 -6.418000 14.485300
     CHANNELS 3 Yrotation Xrotation Zrotation
     End Site
     {
      OFFSET 0.000000 -1.465200 6.326400
     }
    }
   }
  }
 }
 JOINT LeftHip
 {
  OFFSET 7.797300 0.005300 0.000500
  CHANNELS 3 Yrotation Xrotation Zrotation
  JOINT LeftKnee
  {
   OFFSET 0.000000 -40.663400 -0.000500
   CHANNELS 3 Yrotation Xrotation Zrotation
   JOINT LeftAnkle
   {
    OFFSET 0.000000 -39.523700 -0.000900
    CHANNELS 3 Yrotation Xrotation Zrotation
    JOINT LeftToe
    {
     OFFSET 0.000000 -6.418000 14.485300
     CHANNELS 3 Yrotation Xrotation Zrotation
     End Site
     {
      OFFSET 0.000000 -1.465200 6.326400
     }
    }
   }
  }
 }
}
MOTION
Frames: 15
Frame Time: 0.008333
-10.100535 126.674320 5.774284 169.346881 -34.895897 -2.099575 1.821208 22.321147 1.471926 0.213557 3.119318 0.148879 0.356157 5.060140 0.259205 1.501433 18.884344 1.189259 8.495684 17.313368 -1.851797 9.766993 -7.093909 -4.020868 -3.068855 2.952135 3.418972 -4.956216 -7.990096 -7.945747 -111.930742 -47.345403 143.568993 -10.606635 -2.667066 -10.417514 -6.609287 2.784663 0.073629 -1.986634 -14.500945 7.281501 -102.595866 -85.290438 91.337686 -17.648800 -1.631990 20.158832 4.198183 -48.259945 4.963724 -81.390804 82.566781 -80.703863 8.192859 -23.382794 0.251425 0.017290 0.009806 0.007662 -7.614373 -41.656530 -2.627655 56.864043 82.243455 49.018302 2.704188 -7.922485 3.163662 0.004106 0.000341 0.001819
-10.102578 126.674833 5.775730 169.351149 -34.912254 -2.101346 1.823032 22.339045 1.479570 0.210545 3.122215 0.151621 0.357160 5.068123 0.262798 1.503292 18.892149 1.195679 8.382589 17.300421 -1.873007 9.635860 -7.122237 -4.021431 -3.073271 2.930560 3.410213 -4.935760 -7.985181 -7.982178 -112.013814 -47.385734 143.650843 -10.611377 -2.656535 -10.395818 -6.642163 2.700153 0.045803 -2.227032 -14.553445 7.401532 -95.889770 -84.769313 84.603182 -18.070568 -1.118809 19.638291 4.110283 -48.240031 4.997053 -81.273626 82.581774 -80.631265 8.197736 -23.388954 0.240671 0.016793 0.002022 0.007441 -7.621813 -41.642144 -2.624449 56.822753 82.242432 48.973430 2.705847 -7.916531 3.163198 0.004075 0.003085 0.001806
-10.105923 126.674170 5.778171 169.347804 -34.917152 -2.091635 1.825103 22.344881 1.474359 0.217028 3.129668 0.160178 0.356842 5.075951 0.266192 1.492838 18.883270 1.188028 8.283988 17.295703 -1.877925 9.510528 -7.146607 -4.020522 -3.067920 2.928404 3.415101 -4.917790 -7.988631 -8.021626 -112.075575 -47.421280 143.711817 -10.619039 -2.646441 -10.375702 -6.661204 2.645533 0.036374 -2.468873 -14.627514 7.516096 -90.020359 -84.230498 78.668996 -18.450715 -0.695816 19.187106 4.071422 -48.239246 4.987934 -81.163270 82.596156 -80.548380 8.184149 -23.387842 0.236249 0.005793 -0.009160 0.002567 -7.644194 -41.640609 -2.608465 56.775754 82.245903 48.902358 2.702729 -7.909721 3.162476 0.005238 0.006067 0.002321
-10.109763 126.672814 5.781139 169.349562 -34.915030 -2.081648 1.827909 22.344132 1.476983 0.217003 3.134083 0.162247 0.362217 5.082711 0.286204 1.482434 18.893565 1.182620 8.169105 17.274464 -1.901670 9.392930 -7.161722 -4.019442 -3.057262 2.915995 3.418789 -4.906173 -8.004566 -8.071322 -112.127805 -47.454819 143.753433 -10.642896 -2.656981 -10.382288 -6.691348 2.579654 0.016868 -2.705331 -14.711006 7.625601 -84.775639 -83.684515 73.329016 -18.797731 -0.340712 18.776952 4.070615 -48.251769 4.938193 -81.077869 82.603529 -80.467932 8.192905 -23.361360 0.241813 -0.005957 -0.017003 -0.002639 -7.670671 -41.650480 -2.597537 56.640919 82.245455 48.741416 2.714374 -7.885044 3.165770 0.004480 0.003400 0.001985
-10.113146 126.671860 5.783373 169.362914 -34.916514 -2.079128 1.821134 22.343979 1.482150 0.218437 3.131425 0.173022 0.354384 5.085260 0.278244 1.479552 18.901745 1.194785 8.063446 17.270938 -1.924730 9.280759 -7.166859 -4.017355 -3.047944 2.910653 3.408861 -4.914704 -8.008366 -8.089839 -112.163577 -47.503636 143.808706 -10.667539 -2.668202 -10.392754 -6.705353 2.552406 -0.006426 -2.949097 -14.816006 7.733888 -80.050907 -83.138520 68.491499 -19.129799 -0.017570 18.360016 4.096634 -48.264287 4.863363 -81.040698 82.600151 -80.407236 8.185333 -23.307693 0.289402 -0.018163 -0.019797 -0.008045 -7.735998 -41.656746 -2.563553 56.554380 82.249429 48.603933 2.720566 -7.868147 3.170714 0.004845 0.001506 0.002147
-10.114506 126.671644 5.784803 169.376243 -34.925210 -2.086618 1.815321 22.346402 1.494077 0.214189 3.136541 0.166013 0.357443 5.084700 0.289114 1.468467 18.900908 1.206254 7.967944 17.283111 -1.948100 9.169752 -7.165720 -4.014450 -3.037935 2.912213 3.390840 -4.893011 -8.007993 -8.107742 -112.208786 -47.555191 143.848646 -10.669905 -2.665576 -10.408812 -6.725915 2.517037 -0.029160 -3.183859 -14.898492 7.832437 -75.922224 -82.583364 64.243859 -19.454899 0.314299 17.890736 4.142128 -48.269543 4.788456 -81.022108 82.588379 -80.343667 8.215975 -23.252459 0.319443 -0.018851 -0.022527 -0.008349 -7.760445 -41.650645 -2.553333 56.503982 82.250555 48.541011 2.720049 -7.856554 3.172173 0.003714 0.005060 0.001645
-10.114910 126.671553 5.786230 169.386018 -34.934308 -2.096978 1.816476 22.350645 1.511904 0.213362 3.137524 0.167769 0.352625 5.088364 0.284433 1.471184 18.901292 1.224621 7.866043 17.298488 -1.970198 9.061215 -7.162124 -4.013991 -3.035088 2.909903 3.377237 -4.838946 -8.010686 -8.119324 -112.292831 -47.667494 143.910144 -10.696353 -2.703494 -10.466359 -6.762614 2.482838 -0.055727 -3.422599 -14.972696 7.929454 -72.833946 -81.989078 61.029740 -19.737948 0.710448 17.312192 4.182576 -48.270107 4.737404 -80.993040 82.566884 -80.269477 8.247458 -23.202528 0.341428 -0.012632 -0.023614 -0.005595 -7.784605 -41.642870 -2.538059 56.464350 82.251990 48.488616 2.722623 -7.850713 3.174981 0.003222 0.008029 0.001428
-10.115621 126.672066 5.786627 169.396484 -34.949461 -2.104567 1.812208 22.357959 1.531908 0.212479 3.142057 0.168979 0.349637 5.092477 0.272703 1.470810 18.907954 1.240319 7.791004 17.305593 -1.992293 8.937309 -7.155482 -4.012231 -3.021441 2.894293 3.372563 -4.830956 -8.005049 -8.133601 -112.342289 -47.757941 143.963339 -10.638232 -2.697370 -10.580708 -6.780010 2.460884 -0.080900 -3.690584 -15.047311 8.021440 -70.882971 -81.353677 58.925915 -19.979186 1.245013 16.571268 4.191024 -48.257095 4.721448 -80.955168 82.553342 -80.213461 8.261599 -23.178606 0.347480 -0.008357 -0.026382 -0.003701 -7.811466 -41.630782 -2.523026 56.440296 82.250608 48.442264 2.722287 -7.841209 3.182895 0.002034 0.009298 0.000901
-10.116017 126.672480 5.787315 169.402199 -34.962525 -2.111931 1.809358 22.370503 1.540957 0.211409 3.147018 0.175053 0.349407 5.091648 0.276372 1.468267 18.914376 1.250639 7.759720 17.303354 -2.019323 8.777016 -7.143470 -4.003241 -2.990367 2.878337 3.386282 -4.761363 -8.001675 -8.154614 -112.471786 -47.863771 144.013821 -10.592494 -2.700512 -10.677077 -6.799015 2.437272 -0.111005 -3.964820 -15.103700 8.105414 -69.364758 -80.729469 57.245575 -20.313747 1.985646 15.634349 4.256465 -48.253665 4.675180 -81.003063 82.535603 -80.204092 8.258051 -23.130057 0.389033 -0.008077 -0.022331 -0.003578 -7.826559 -41.624287 -2.512455 56.466966 82.245243 48.455448 2.719389 -7.824417 3.184576 0.002006 0.009830 0.000889
-10.114656 126.673059 5.788271 169.408103 -34.975760 -2.130911 1.810960 22.383902 1.562085 0.210422 3.155872 0.183597 0.349333 5.091653 0.276586 1.467868 18.921858 1.261491 7.667205 17.307355 -2.049217 8.675908 -7.143469 -4.016748 -2.985840 2.859553 3.371818 -4.694782 -8.004113 -8.142235 -112.580524 -47.976818 144.063805 -10.559808 -2.715628 -10.757611 -6.839936 2.402135 -0.152388 -4.216154 -15.138763 8.187342 -67.947862 -80.151028 55.749445 -20.903199 2.942962 14.469412 4.303236 -48.233140 4.678573 -80.952794 82.481081 -80.101361 8.239572 -23.097634 0.436796 -0.001320 -0.007776 -0.000585 -7.843298 -41.617645 -2.491714 56.534343 82.241919 48.515318 2.710069 -7.818616 3.190505 0.001564 0.008991 0.000693
-10.114113 126.673069 5.789948 169.415978 -34.981942 -2.148319 1.807364 22.395477 1.584256 0.213385 3.159062 0.184249 0.346207 5.098993 0.280817 1.467860 18.931429 1.271673 7.574064 17.307087 -2.082781 8.569106 -7.139953 -4.032428 -2.979761 2.831235 3.355913 -4.674034 -8.005757 -8.139908 -112.652534 -48.075685 144.116149 -10.581068 -2.750041 -10.800988 -6.890504 2.356360 -0.192857 -4.433239 -15.160854 8.250979 -67.002251 -79.599996 54.837819 -21.766549 4.025717 13.129549 4.258202 -48.214219 4.728411 -80.902169 82.443051 -80.051594 8.262392 -23.093801 0.476645 0.001638 0.001424 0.000726 -7.807531 -41.636280 -2.514638 56.744963 82.235605 48.762294 2.698811 -7.797348 3.186499 0.001621 -0.003364 0.000718
-10.114241 126.673462 5.790880 169.426363 -34.991436 -2.164000 1.804603 22.410340 1.602167 0.214953 3.159543 0.187084 0.344329 5.109369 0.284169 1.475489 18.959174 1.311103 7.459798 17.294677 -2.146654 8.459368 -7.125967 -4.047415 -2.970539 2.777923 3.347399 -4.661795 -8.007382 -8.167354 -112.732125 -48.177229 144.171089 -10.523255 -2.740449 -10.863749 -6.979023 2.265988 -0.260905 -4.579405 -15.156158 8.300078 -66.861487 -79.044081 54.766420 -22.781780 5.104373 11.762575 4.168349 -48.188684 4.805649 -80.869832 82.411089 -80.045721 8.288059 -23.111268 0.502954 0.004212 0.006415 0.001866 -7.759331 -41.639535 -2.553413 56.988775 82.202230 49.045881 2.664070 -7.783664 3.190184 -0.000288 -0.006394 -0.000128
-10.114401 126.675257 5.789657 169.445324 -35.014518 -2.183719 1.796610 22.435659 1.621406 0.217638 3.159418 0.188182 0.341281 5.118613 0.289350 1.473531 18.960626 1.314122 7.293880 17.340055 -2.183166 8.412778 -7.130808 -4.074669 -2.969601 2.763593 3.341645 -4.553965 -8.020932 -8.133341 -112.892133 -48.325670 144.225772 -10.463437 -2.718847 -10.905350 -7.030844 2.214454 -0.286147 -4.695327 -15.160956 8.320159 -67.533383 -78.477575 55.488028 -23.839482 6.096546 10.466967 4.034683 -48.148038 4.905935 -80.861724 82.398960 -80.094214 8.321005 -23.142245 0.524328 0.005174 0.006886 0.002293 -7.682515 -41.623150 -2.617793 57.102687 82.185690 49.224715 2.650486 -7.780530 3.193913 0.001699 -0.006208 0.000753
-10.116140 126.676246 5.788926 169.455874 -35.029632 -2.191392 1.805427 22.444027 1.643124 0.207807 3.165030 0.181393 0.349873 5.124826 0.304418 1.453689 18.959591 1.298242 7.177930 17.377784 -2.203853 8.322345 -7.111973 -4.085208 -2.964823 2.758357 3.345540 -4.492218 -8.029322 -8.105474 -113.013795 -48.455706 144.288268 -10.433850 -2.706012 -10.926539 -7.054487 2.175274 -0.291179 -4.776804 -15.179238 8.320436 -68.816300 -77.923653 56.803079 -24.852112 6.930148 9.299378 3.895073 -48.116441 5.000476 -80.876673 82.404811 -80.177939 8.362654 -23.183927 0.534225 0.009499 0.006263 0.004209 -7.541647 -41.606054 -2.722754 57.101654 82.170534 49.326649 2.635684 -7.784710 3.196719 0.007954 0.000391 0.003524
-10.118885 126.676090 5.789185 169.451140 -35.033370 -2.186552 1.820771 22.439882 1.650577 0.198377 3.171700 0.178656 0.358054 5.118517 0.310962 1.451129 18.969994 1.309840 7.073524 17.406898 -2.231800 8.210151 -7.075369 -4.085456 -2.969411 2.751153 3.350468 -4.453486 -8.032288 -8.095226 -113.102593 -48.555354 144.340810 -10.390332 -2.679211 -10.941107 -7.072509 2.152242 -0.304857 -4.820885 -15.230211 8.314028 -70.495137 -77.391732 58.494807 -25.701910 7.546317 8.346907 3.770601 -48.097863 5.083630 -80.758295 82.416224 -80.144273 8.394739 -23.220601 0.585381 0.004957 0.003468 0.002196 -7.326532 -41.596297 -2.879952 57.078228 82.146127 49.452001 2.626111 -7.796386 3.199807 0.010812 0.009366 0.004791
